<svg width="190" height="120" viewBox="0 0 190 120" fill="none" xmlns="http://www.w3.org/2000/svg">
<rect x="2.5" y="2.5" width="185" height="115" rx="7.5" stroke="#E12468" stroke-width="5"/>
<path d="M43 27H49V97H42V34.7L26.3 39.4L24.5 33.4L43 27ZM83.4844 52C90.351 52 95.9844 54.1667 100.384 58.5C104.784 62.7667 106.984 68.3 106.984 75.1C106.984 81.9 104.784 87.4667 100.384 91.8C95.9844 96.0667 90.351 98.2 83.4844 98.2C76.6177 98.2 70.9844 96.0667 66.5844 91.8C62.1844 87.4667 59.9844 81.9 59.9844 75.1C59.9844 69.8333 61.4177 65.1667 64.2844 61.1L87.1844 27H95.0844L77.8844 52.6C79.6844 52.2 81.551 52 83.4844 52ZM71.4844 86.9C74.551 89.9 78.551 91.4 83.4844 91.4C88.4177 91.4 92.3844 89.9 95.3844 86.9C98.451 83.9 99.9844 79.9667 99.9844 75.1C99.9844 70.2333 98.451 66.3 95.3844 63.3C92.3844 60.3 88.4177 58.8 83.4844 58.8C78.551 58.8 74.551 60.3 71.4844 63.3C68.4844 66.3 66.9844 70.2333 66.9844 75.1C66.9844 79.9667 68.4844 83.9 71.4844 86.9ZM158.012 58.8V65.2H140.212V83H133.812V65.2H116.012V58.8H133.812V41H140.212V58.8H158.012Z" fill="#E12468"/>
</svg>
