<svg width="190" height="120" viewBox="0 0 190 120" fill="none" xmlns="http://www.w3.org/2000/svg">
<rect x="2.5" y="2.5" width="185" height="115" rx="7.5" stroke="#E12468" stroke-width="5"/>
<path d="M99 88.4C94.4 94.9333 87.9 98.2 79.5 98.2C71.1 98.2 64.5667 94.9333 59.9 88.4C55.3 81.8 53 73 53 62C53 51 55.3 42.2333 59.9 35.7C64.5667 29.1 71.1 25.8 79.5 25.8C87.9 25.8 94.4 29.1 99 35.7C103.667 42.2333 106 51 106 62C106 73 103.667 81.8 99 88.4ZM65.1 83.7C68.5667 88.8333 73.3667 91.4 79.5 91.4C85.6333 91.4 90.4 88.8333 93.8 83.7C97.2667 78.5667 99 71.3333 99 62C99 52.6667 97.2667 45.4333 93.8 40.3C90.4 35.1667 85.6333 32.6 79.5 32.6C73.3667 32.6 68.5667 35.1667 65.1 40.3C61.7 45.4333 60 52.6667 60 62C60 71.3333 61.7 78.5667 65.1 83.7ZM158.988 58.8V65.2H141.188V83H134.788V65.2H116.988V58.8H134.788V41H141.188V58.8H158.988Z" fill="#E12468"/>
</svg>
