<svg width="190" height="120" viewBox="0 0 190 120" fill="none" xmlns="http://www.w3.org/2000/svg">
<rect x="2.5" y="2.5" width="185" height="115" rx="7.5" stroke="#E12468" stroke-width="5"/>
<path d="M43 27H49V97H42V34.7L26.3 39.4L24.5 33.4L43 27ZM60.9844 97V90.7L86.1844 65.3C93.3844 58.1 96.9844 51.9333 96.9844 46.8C96.9844 42.3333 95.5844 38.8667 92.7844 36.4C90.051 33.8667 86.751 32.6 82.8844 32.6C75.6844 32.6 70.451 35.9 67.1844 42.5L61.2844 39C63.4844 34.6667 66.4844 31.4 70.2844 29.2C74.0844 26.9333 78.2844 25.8 82.8844 25.8C88.4844 25.8 93.3844 27.7 97.5844 31.5C101.851 35.2333 103.984 40.3333 103.984 46.8C103.984 50.8667 102.851 54.7667 100.584 58.5C98.3177 62.2333 95.1177 66.1667 90.9844 70.3L70.9844 90.2H105.484V97H60.9844ZM157.523 58.8V65.2H139.723V83H133.323V65.2H115.523V58.8H133.323V41H139.723V58.8H157.523Z" fill="#E12468"/>
</svg>
