<svg width="190" height="120" viewBox="0 0 190 120" fill="none" xmlns="http://www.w3.org/2000/svg">
<rect x="2.5" y="2.5" width="185" height="115" rx="7.5" stroke="#E12468" stroke-width="5"/>
<path d="M74.5 52C81.3667 52 87 54.1667 91.4 58.5C95.8 62.7667 98 68.3 98 75.1C98 81.9 95.8 87.4667 91.4 91.8C87 96.0667 81.3667 98.2 74.5 98.2C67.6333 98.2 62 96.0667 57.6 91.8C53.2 87.4667 51 81.9 51 75.1C51 69.8333 52.4333 65.1667 55.3 61.1L78.2 27H86.1L68.9 52.6C70.7 52.2 72.5667 52 74.5 52ZM62.5 86.9C65.5667 89.9 69.5667 91.4 74.5 91.4C79.4333 91.4 83.4 89.9 86.4 86.9C89.4667 83.9 91 79.9667 91 75.1C91 70.2333 89.4667 66.3 86.4 63.3C83.4 60.3 79.4333 58.8 74.5 58.8C69.5667 58.8 65.5667 60.3 62.5 63.3C59.5 66.3 58 70.2333 58 75.1C58 79.9667 59.5 83.9 62.5 86.9ZM149.027 58.8V65.2H131.227V83H124.827V65.2H107.027V58.8H124.827V41H131.227V58.8H149.027Z" fill="#E12468"/>
</svg>
