<svg width="190" height="120" viewBox="0 0 190 120" fill="none" xmlns="http://www.w3.org/2000/svg">
<rect x="2.5" y="2.5" width="185" height="115" rx="7.5" stroke="#E12468" stroke-width="5"/>
<path d="M43 27H49V97H42V34.7L26.3 39.4L24.5 33.4L43 27ZM96.1844 60.9C99.7177 62.5667 102.518 64.9 104.584 67.9C106.718 70.8333 107.784 74.2 107.784 78C107.784 84.3333 105.551 89.3 101.084 92.9C96.6177 96.4333 91.051 98.2 84.3844 98.2C77.7177 98.2 72.151 96.4333 67.6844 92.9C63.2177 89.3 60.9844 84.3333 60.9844 78C60.9844 74.2 62.0177 70.8333 64.0844 67.9C66.2177 64.9 69.051 62.5667 72.5844 60.9C66.3844 57.3667 63.2844 52.1333 63.2844 45.2C63.2844 38.9333 65.351 34.1333 69.4844 30.8C73.6844 27.4667 78.651 25.8 84.3844 25.8C90.1177 25.8 95.051 27.4667 99.1844 30.8C103.384 34.1333 105.484 38.9333 105.484 45.2C105.484 52.1333 102.384 57.3667 96.1844 60.9ZM94.3844 35.7C91.7177 33.6333 88.3844 32.6 84.3844 32.6C80.3844 32.6 77.0177 33.6333 74.2844 35.7C71.6177 37.7667 70.2844 40.9333 70.2844 45.2C70.2844 49.2 71.651 52.3 74.3844 54.5C77.1844 56.7 80.5177 57.8 84.3844 57.8C88.251 57.8 91.551 56.7 94.2844 54.5C97.0844 52.3 98.4844 49.2 98.4844 45.2C98.4844 40.9333 97.1177 37.7667 94.3844 35.7ZM72.4844 88C75.4844 90.2667 79.451 91.4 84.3844 91.4C89.3177 91.4 93.2844 90.2667 96.2844 88C99.2844 85.6667 100.784 82.3333 100.784 78C100.784 73.6667 99.2844 70.3667 96.2844 68.1C93.2844 65.7667 89.3177 64.6 84.3844 64.6C79.451 64.6 75.4844 65.7667 72.4844 68.1C69.4844 70.3667 67.9844 73.6667 67.9844 78C67.9844 82.3333 69.4844 85.6667 72.4844 88ZM159.77 58.8V65.2H141.97V83H135.57V65.2H117.77V58.8H135.57V41H141.97V58.8H159.77Z" fill="#E12468"/>
</svg>
