<svg width="35" height="30" viewBox="0 0 35 30" fill="none" xmlns="http://www.w3.org/2000/svg">
<path d="M8.52178 15.5012C6.37002 13.18 6.50427 9.31534 8.89764 7.18318L8.89781 7.18303C10.902 5.40103 13.949 5.66781 15.882 7.7532L15.8831 7.75441L16.7681 8.70595L17.5003 9.49333L18.2326 8.70595L19.1175 7.75441L19.118 7.75393C21.056 5.66735 24.0987 5.40141 26.1025 7.18267C28.4963 9.31465 28.6307 13.1793 26.475 15.5006L26.4748 15.5008L17.7828 24.866C17.7827 24.8661 17.7826 24.8662 17.7826 24.8662C17.6909 24.9649 17.588 25 17.4981 25C17.4082 25 17.3053 24.9649 17.2136 24.8662C17.2135 24.8662 17.2135 24.8661 17.2134 24.866L8.52178 15.5012Z" fill="#F82973" stroke="#F82973" stroke-width="2"/>
</svg>
